<svg width="70" height="70" viewBox="0 0 70 70" fill="none" xmlns="http://www.w3.org/2000/svg">
<g filter="url(#filter0_d_0_30)">
<path d="M68 33C68 51.2254 53.2254 66 35 66C16.7746 66 2 51.2254 2 33C2 14.7746 16.7746 0 35 0C53.2254 0 68 14.7746 68 33Z" fill="#6528F7"/>
</g>
<path d="M32.2499 39.8726C32.2499 35.3247 35.4234 31.51 39.6701 30.5098C40.3713 30.3446 40.8508 29.616 40.5928 28.9434C40.3455 28.2983 39.5691 28.1239 38.9685 28.4653C34.8625 30.7998 29.81 30.826 25.6832 28.5466C25.0002 28.1693 24.1228 28.368 23.8506 29.0993C23.5864 29.8087 22.7892 30.2144 22.0897 29.9248L20.8223 29.3999C20.1211 29.1096 19.3172 29.4425 19.0266 30.1437C18.7358 30.8453 19.0693 31.6498 19.7711 31.9401L21.7822 32.7718C22.3884 33.0225 22.7455 33.6354 22.6903 34.2891C22.623 35.0856 21.9782 35.7483 21.1789 35.7483H19.8759C19.1167 35.7483 18.5012 36.3637 18.5012 37.1229C18.5012 37.8821 19.1167 38.4975 19.8759 38.4975H21.6356C22.3148 38.4975 22.8876 39.0129 23.0291 39.6772C23.1729 40.3517 22.8358 41.035 22.1987 41.2991L19.7706 42.3053C19.0695 42.5959 18.7365 43.3997 19.0268 44.1009C19.3172 44.8026 20.1215 45.1358 20.8231 44.8451L21.9651 44.3719C23.2519 43.8387 24.7052 44.4329 25.5148 45.5664C27.2509 47.9968 29.6282 49.4959 32.2515 49.4959C34.5529 49.4959 34.564 46.5238 33.4479 44.5112C32.6849 43.1353 32.2499 41.5539 32.2499 39.8726Z" fill="white"/>
<path d="M37.2834 24.0498C36.6271 23.4762 36.3518 22.583 36.6856 21.7778L37.9098 18.8245C38.2006 18.1231 37.8676 17.3189 37.1662 17.0282C36.4648 16.7376 35.6606 17.0707 35.3701 17.7722L34.0644 20.9248C33.7711 21.633 33.017 22.0009 32.2504 22.0009C31.4822 22.0009 30.7263 21.6319 30.4324 20.9221L29.128 17.7724C28.8374 17.0708 28.0331 16.7376 27.3315 17.0282C26.63 17.3189 26.2969 18.1232 26.5875 18.8247L27.8133 21.7833C28.1464 22.5872 27.8722 23.4785 27.2169 24.051C26.4489 24.7218 26.5886 25.9495 27.506 26.3945C30.4923 27.8431 34.0062 27.8433 36.9933 26.395C37.9116 25.9498 38.0519 24.7213 37.2834 24.0498Z" fill="white"/>
<path d="M49.3555 45.4153C48.3374 44.3971 48.2554 42.8084 48.5769 41.4049C48.6893 40.9144 48.7489 40.4041 48.7489 39.8799C48.7489 36.083 45.6712 33.0059 41.8742 33.0059C38.0767 33.0059 34.999 36.083 34.999 39.8799C34.999 43.6763 38.0767 46.7535 41.8742 46.7535C42.3989 46.7535 42.9094 46.6939 43.4 46.5817C44.8041 46.2603 46.3939 46.3417 47.4123 47.3603L48.5824 48.5308C49.1193 49.0678 49.9898 49.0679 50.5268 48.531C51.0637 47.9942 51.0638 47.1237 50.5269 46.5867L49.3555 45.4153ZM41.8742 44.0042C39.5955 44.0042 37.7492 42.1569 37.7492 39.8799C37.7492 37.6004 39.5955 35.7555 41.8742 35.7555C44.1524 35.7555 45.9992 37.6004 45.9992 39.8799C45.9992 42.1569 44.1524 44.0042 41.8742 44.0042Z" fill="white"/>
<defs>
<filter id="filter0_d_0_30" x="0.34" y="0" width="69.32" height="69.32" filterUnits="userSpaceOnUse" color-interpolation-filters="sRGB">
<feFlood flood-opacity="0" result="BackgroundImageFix"/>
<feColorMatrix in="SourceAlpha" type="matrix" values="0 0 0 0 0 0 0 0 0 0 0 0 0 0 0 0 0 0 127 0" result="hardAlpha"/>
<feOffset dy="1.66"/>
<feGaussianBlur stdDeviation="0.83"/>
<feComposite in2="hardAlpha" operator="out"/>
<feColorMatrix type="matrix" values="0 0 0 0 0 0 0 0 0 0 0 0 0 0 0 0 0 0 0.15 0"/>
<feBlend mode="normal" in2="BackgroundImageFix" result="effect1_dropShadow_0_30"/>
<feBlend mode="normal" in="SourceGraphic" in2="effect1_dropShadow_0_30" result="shape"/>
</filter>
</defs>
</svg>
